<svg width="741" height="624" viewBox="0 0 741 624" fill="none" xmlns="http://www.w3.org/2000/svg">
<g filter="url(#Mesh1)">
<path d="M543.668 478.871C568.329 488.412 592.513 497.768 619.07 500.047C620.255 494.14 614.344 490.268 611.932 484.347C608.322 475.486 601.947 467.489 597.141 458.837C587.705 441.853 578.587 424.16 567.129 408.247C553.618 389.481 557.842 360.607 554.482 339.006C552.401 325.633 548.26 311.232 543.763 298.491C538.603 283.869 535.663 268.079 529.186 254.01C513.982 220.981 491.081 198.33 459.732 181.018C439.098 169.623 421.599 155.435 399.494 146.505C382.203 139.519 363.389 133.531 345.474 128.284C322.733 121.622 303.729 120.138 280.199 120.138C249.828 120.138 221.355 117.761 193.809 131.928C168.353 145.02 149.799 164.375 132.179 186.591C116.954 205.788 118.584 228.791 119.638 252.509C121.553 295.588 148.492 328.878 171.837 363.015C182.558 378.694 193.833 387.528 209.565 397.743C227.125 409.144 245.327 421.286 266.587 423.467C283.561 425.208 300.598 430.422 317.606 430.755C333.071 431.059 348.552 430.427 364.017 430.862C402.662 431.951 436.815 442.124 473.129 454.228C496.22 461.925 519.902 469.678 542.584 478.452L543.668 478.871Z" fill="#C72141"/>
</g>
<defs>
<filter id="Mesh1" x="0" y="0.987671" width="740.15" height="622.081" filterUnits="userSpaceOnUse" color-interpolation-filters="sRGB">
<feFlood flood-opacity="0" result="BackgroundImageFix"/>
<feBlend mode="normal" in="SourceGraphic" in2="BackgroundImageFix" result="shape"/>
<feGaussianBlur stdDeviation="59.5" result="effect1_foregroundBlur_30_801"/>
</filter>
</defs>
</svg>
