<svg width="825" height="964" viewBox="0 0 825 964" fill="none" xmlns="http://www.w3.org/2000/svg">
<g filter="url(#Mesh2)">
<path d="M220.175 818.826C229.606 825.16 241.325 833.443 252.097 837.048C259.792 836.909 266.494 835.966 273.96 835.032C276.977 834.655 278.419 832.121 281.596 832.121C283.398 832.121 286.18 832.631 287.694 831.571C293.054 827.82 304.819 829.154 311.043 829.154C320.115 829.154 328.935 827.321 337.852 826.133C347.316 824.871 356.548 823.47 365.926 821.847C375.838 820.132 383.907 819.464 393.449 815.749C404.17 811.576 413.141 809.082 421.303 800.531C425.089 796.566 429.73 793.751 433.115 789.379C435.265 786.601 437.216 783.716 439.487 781.029C447.379 771.69 453.904 762.643 460.474 752.406C468.613 739.723 479.149 727.274 484.317 713.015C489.086 699.855 496.747 688.177 501.732 675.108C507.557 659.838 507.459 644.05 510.687 628.301C513.199 616.044 512.651 603.765 514.807 591.493C518.432 570.861 526.704 550.855 537.716 533.039C546.489 518.846 559.186 510.883 571.833 500.845C582.585 492.312 593.487 485.154 605.29 478.101C619.228 469.772 631.112 456.678 642.208 444.919C650.189 436.461 657.058 426.962 664.733 418.219C671.883 410.073 675.408 399.88 681.764 391.079C687.416 383.253 690.144 374.331 694.619 365.918C699.162 357.377 698.135 348.045 698.135 338.669C698.135 300.826 702.34 260.139 691.488 223.409C687.75 210.758 679.344 198.374 672.864 186.93C665.586 174.078 658.852 159.43 647.922 149.243C643.427 145.053 638.38 141.769 633.198 138.53C631.059 137.193 629.541 134.716 627.265 133.695C620.222 130.538 607.813 132.981 600.236 132.981C575.984 132.981 551.866 132.767 527.828 136.607C516.601 138.401 505.397 140.355 494.206 142.376C483.606 144.289 471.323 145.949 461.243 149.682C450.769 153.562 443.157 154.737 432.016 154.737C420.906 154.737 409.708 155.146 398.614 154.517C386.921 153.853 376.192 150.587 364.882 147.76C352.873 144.757 342.68 137.816 331.04 133.97C321.254 130.736 312.038 127.44 301.593 127.103C291.812 126.787 282.116 127.178 272.366 127.817C255.806 128.903 242.251 133.79 233.141 148.913C226.577 159.809 218.446 169.458 212.045 180.502C204.408 193.68 196.062 207.188 190.289 221.321C176.638 254.743 177.983 290.206 177.983 325.484C177.983 342.874 178.253 360.288 177.928 377.675C177.538 398.558 172.861 417.887 167.325 437.886C165.018 446.222 163.489 455.252 159.249 462.883C157.152 466.659 155.324 470.174 153.701 474.2C149.511 484.592 142.977 493.723 138.648 504.032C133.882 515.378 127.625 527.687 126.726 540.126C125.534 556.615 126.561 573.532 126.561 590.064L126.561 591.091C126.56 605.584 126.558 620.205 129.253 634.509C132.042 649.31 134.026 665.009 141.394 678.295C153.762 700.595 161.075 724.534 170.786 747.956C177.568 764.312 184.34 781.733 195.783 795.422C203.247 804.352 210.486 812.318 220.175 818.826Z" fill="#BA3275"/>
</g>
<defs>
<filter id="Mesh2" x="0.149902" y="0.991333" width="824.787" height="962.074" filterUnits="userSpaceOnUse" color-interpolation-filters="sRGB">
<feFlood flood-opacity="0" result="BackgroundImageFix"/>
<feBlend mode="normal" in="SourceGraphic" in2="BackgroundImageFix" result="shape"/>
<feGaussianBlur stdDeviation="63" result="effect1_foregroundBlur_30_802"/>
</filter>
</defs>
</svg>
